<?xml version="1.0" standalone="no"?>
<!DOCTYPE svg PUBLIC "-//W3C//DTD SVG 1.1//EN" "http://www.w3.org/Graphics/SVG/1.1/DTD/svg11.dtd">
<svg class="icon" height="512" viewBox="0 0 1024 1024" version="1.1" xmlns="http://www.w3.org/2000/svg">
<path fill="#202838" d="M512 97.524c-229.361 0-414.476 186.018-414.476 414.476s186.018 414.476 414.476 414.476 414.476-186.018 414.476-414.476-185.115-414.476-414.476-414.476zM658.286 534.575l-205.883 206.787c-6.321 6.321-14.448 9.030-22.575 9.030s-16.254-2.709-22.575-9.030c-12.642-12.642-12.642-32.508 0-45.15l184.212-184.212-183.309-181.503c-12.642-12.642-12.642-32.508 0-44.246 12.642-12.642 32.508-12.642 44.246 0l205.884 204.078c6.321 6.321 9.030 13.545 9.030 22.575 0 7.224-2.709 15.351-9.030 21.672z" />
</svg>