<?xml version="1.0" standalone="no"?>
<!DOCTYPE svg PUBLIC "-//W3C//DTD SVG 1.1//EN" "http://www.w3.org/Graphics/SVG/1.1/DTD/svg11.dtd">
<svg class="icon"  height="512" viewBox="0 0 1024 1024" version="1.1" xmlns="http://www.w3.org/2000/svg">
<path  fill="#202838" d="M512 954.109c244.652 0 442.108-198.419 442.108-442.108s-198.419-442.108-442.108-442.108-442.108 198.419-442.108 442.108 197.456 442.108 442.108 442.108zM355.962 487.919l219.609-220.573c6.742-6.742 15.411-9.632 24.080-9.632s17.338 2.89 24.080 9.632c13.485 13.485 13.485 34.675 0 48.16l-196.493 196.493 195.531 193.603c13.485 13.485 13.485 34.675 0 47.197-13.485 13.485-34.675 13.485-47.197 0l-219.61-217.683c-6.742-6.742-9.632-14.448-9.632-24.080 0-7.706 2.89-16.374 9.632-23.117z" />
</svg>